<svg xmlns="http://www.w3.org/2000/svg" xmlns:xlink="http://www.w3.org/1999/xlink" version="1.1" width="256" height="256" viewBox="0 0 256 256" xml:space="preserve">

<defs>
</defs>
<g style="stroke: none; stroke-width: 0; stroke-dasharray: none; stroke-linecap: butt; stroke-linejoin: miter; stroke-miterlimit: 10; fill: none; fill-rule: nonzero; opacity: 1;" transform="translate(1.4065934065934016 1.4065934065934016) scale(2.81 2.81)" >
	<path d="M 84.981 72.571 H 70.878 c -2.768 0 -5.019 -2.251 -5.019 -5.019 V 31.805 c 0 -2.768 2.251 -5.019 5.019 -5.019 h 14.104 c 2.768 0 5.019 2.251 5.019 5.019 v 35.748 C 90 70.32 87.749 72.571 84.981 72.571 z M 70.878 28.786 c -1.664 0 -3.019 1.354 -3.019 3.019 v 35.748 c 0 1.664 1.354 3.019 3.019 3.019 h 14.104 c 1.664 0 3.019 -1.354 3.019 -3.019 V 31.805 c 0 -1.665 -1.354 -3.019 -3.019 -3.019 H 70.878 z" style="stroke: none; stroke-width: 1; stroke-dasharray: none; stroke-linecap: butt; stroke-linejoin: miter; stroke-miterlimit: 10; fill: rgb(0,0,0); fill-rule: nonzero; opacity: 1;" transform=" matrix(1 0 0 1 0 0) " stroke-linecap="round" />
	<path d="M 78.846 34.138 h -1.833 c -0.553 0 -1 -0.448 -1 -1 s 0.447 -1 1 -1 h 1.833 c 0.553 0 1 0.448 1 1 S 79.398 34.138 78.846 34.138 z" style="stroke: none; stroke-width: 1; stroke-dasharray: none; stroke-linecap: butt; stroke-linejoin: miter; stroke-miterlimit: 10; fill: rgb(0,0,0); fill-rule: nonzero; opacity: 1;" transform=" matrix(1 0 0 1 0 0) " stroke-linecap="round" />
	<path d="M 80.555 67.386 h -5.25 c -0.553 0 -1 -0.447 -1 -1 s 0.447 -1 1 -1 h 5.25 c 0.553 0 1 0.447 1 1 S 81.107 67.386 80.555 67.386 z" style="stroke: none; stroke-width: 1; stroke-dasharray: none; stroke-linecap: butt; stroke-linejoin: miter; stroke-miterlimit: 10; fill: rgb(0,0,0); fill-rule: nonzero; opacity: 1;" transform=" matrix(1 0 0 1 0 0) " stroke-linecap="round" />
	<path d="M 59.571 72.571 H 5.865 C 2.631 72.571 0 69.94 0 66.706 v -4.002 c 0 -0.553 0.448 -1 1 -1 h 31.604 c 0.35 0 0.674 0.183 0.855 0.482 L 34.98 64.7 h 13.602 l 1.521 -2.514 c 0.181 -0.3 0.506 -0.482 0.855 -0.482 h 8.613 c 0.553 0 1 0.447 1 1 s -0.447 1 -1 1 h -8.05 l -1.521 2.514 c -0.181 0.3 -0.506 0.482 -0.855 0.482 H 34.417 c -0.35 0 -0.674 -0.183 -0.855 -0.482 l -1.521 -2.514 H 2 v 3.002 c 0 2.131 1.734 3.865 3.865 3.865 h 53.706 c 0.553 0 1 0.447 1 1 S 60.124 72.571 59.571 72.571 z" style="stroke: none; stroke-width: 1; stroke-dasharray: none; stroke-linecap: butt; stroke-linejoin: miter; stroke-miterlimit: 10; fill: rgb(0,0,0); fill-rule: nonzero; opacity: 1;" transform=" matrix(1 0 0 1 0 0) " stroke-linecap="round" />
	<path d="M 4.846 63.704 c -0.552 0 -1 -0.447 -1 -1 V 21.183 c 0 -2.07 1.684 -3.753 3.754 -3.753 h 68.363 c 2.07 0 3.754 1.684 3.754 3.753 c 0 0.552 -0.447 1 -1 1 s -1 -0.448 -1 -1 c 0 -0.967 -0.787 -1.753 -1.754 -1.753 H 7.6 c -0.967 0 -1.754 0.787 -1.754 1.753 v 41.521 C 5.846 63.257 5.398 63.704 4.846 63.704 z" style="stroke: none; stroke-width: 1; stroke-dasharray: none; stroke-linecap: butt; stroke-linejoin: miter; stroke-miterlimit: 10; fill: rgb(0,0,0); fill-rule: nonzero; opacity: 1;" transform=" matrix(1 0 0 1 0 0) " stroke-linecap="round" />
	<path d="M 42.756 25.597 h -1.95 c -0.552 0 -1 -0.448 -1 -1 s 0.448 -1 1 -1 h 1.95 c 0.552 0 1 0.448 1 1 S 43.308 25.597 42.756 25.597 z" style="stroke: none; stroke-width: 1; stroke-dasharray: none; stroke-linecap: butt; stroke-linejoin: miter; stroke-miterlimit: 10; fill: rgb(0,0,0); fill-rule: nonzero; opacity: 1;" transform=" matrix(1 0 0 1 0 0) " stroke-linecap="round" />
</g>
</svg>