<svg xmlns="http://www.w3.org/2000/svg" xmlns:xlink="http://www.w3.org/1999/xlink" version="1.1" width="256" height="256" viewBox="0 0 256 256" xml:space="preserve">

<defs>
</defs>
<g style="stroke: none; stroke-width: 0; stroke-dasharray: none; stroke-linecap: butt; stroke-linejoin: miter; stroke-miterlimit: 10; fill: none; fill-rule: nonzero; opacity: 1;" transform="translate(1.4065934065934016 1.4065934065934016) scale(2.81 2.81)" >
	<path d="M 50.596 56.451 c -0.438 -0.336 -1.064 -0.258 -1.403 0.179 c -0.338 0.437 -0.258 1.064 0.179 1.403 c 6.302 4.881 12.177 10.656 17.525 17.235 c 1.092 1.106 1.081 2.896 -0.024 3.987 c -0.507 0.5 -1.253 0.746 -2.062 0.701 c -0.826 -0.048 -1.612 -0.393 -2.156 -0.944 c -0.016 -0.016 -0.038 -0.022 -0.054 -0.036 c -0.064 -0.073 -0.111 -0.154 -0.18 -0.223 L 52.089 68.295 c -0.388 -0.391 -1.021 -0.397 -1.414 -0.008 c -0.393 0.388 -0.396 1.021 -0.008 1.414 l 10.33 10.458 c 1.093 1.105 1.081 2.894 -0.024 3.985 c -0.528 0.522 -1.23 0.809 -1.979 0.809 c -0.007 0 -0.013 0 -0.019 0 c -0.756 -0.004 -1.462 -0.3 -1.987 -0.833 l -2.293 -2.321 c -0.001 -0.001 -0.002 -0.001 -0.003 -0.002 L 44.364 71.342 c -0.388 -0.392 -1.022 -0.397 -1.414 -0.008 c -0.393 0.388 -0.397 1.021 -0.009 1.414 l 10.328 10.454 c 0.001 0.001 0.001 0.002 0.002 0.003 l 0.005 0.006 c 0.523 0.532 0.809 1.239 0.804 1.992 c -0.004 0.756 -0.3 1.462 -0.833 1.987 c -0.528 0.522 -1.23 0.81 -1.979 0.81 c -0.007 0 -0.013 0 -0.019 0 c -0.756 -0.005 -1.462 -0.301 -1.988 -0.834 L 36.638 74.388 c -0.389 -0.392 -1.021 -0.397 -1.414 -0.008 c -0.393 0.388 -0.397 1.021 -0.009 1.414 l 10.994 11.129 c -6.975 3.617 -18.528 -8.776 -28.971 -21.005 l 6.549 -21.145 h 4.537 c 0.552 0 1 -0.448 1 -1 s -0.448 -1 -1 -1 h -3.918 l 0.769 -2.481 c 0.083 -0.266 0.05 -0.553 -0.088 -0.794 c -0.138 -0.241 -0.371 -0.414 -0.642 -0.476 c -8.147 -1.88 -14.79 -2.896 -20.906 -3.199 C 3.265 35.808 3 35.908 2.801 36.097 c -0.198 0.189 -0.311 0.451 -0.311 0.725 V 69.22 c 0 0.553 0.448 1 1 1 h 11.678 c 0.438 0 0.826 -0.285 0.955 -0.704 l 0.415 -1.339 c 9.598 11.18 19.354 21.428 26.991 21.428 c 1.464 0 2.849 -0.383 4.141 -1.202 l 0.168 0.17 c 0.901 0.912 2.108 1.419 3.398 1.428 c 0.011 0 0.021 0 0.031 0 c 1.278 0 2.479 -0.491 3.386 -1.386 c 0.748 -0.739 1.205 -1.689 1.356 -2.717 c 0.838 0.666 1.86 1.049 2.953 1.056 c 0.01 0 0.02 0 0.03 0 c 1.278 0 2.479 -0.491 3.386 -1.386 c 1.035 -1.023 1.488 -2.402 1.398 -3.751 c 0.3 0.07 0.607 0.12 0.917 0.138 c 0.107 0.006 0.214 0.009 0.319 0.009 c 1.271 0 2.421 -0.45 3.266 -1.284 c 1.89 -1.866 1.908 -4.924 0.106 -6.743 C 63.004 67.31 57.019 61.427 50.596 56.451 z M 4.49 68.22 V 37.879 c 5.442 0.341 11.362 1.256 18.456 2.853 L 14.431 68.22 H 4.49 z" style="stroke: none; stroke-width: 1; stroke-dasharray: none; stroke-linecap: butt; stroke-linejoin: miter; stroke-miterlimit: 10; fill: rgb(0,0,0); fill-rule: nonzero; opacity: 1;" transform=" matrix(1 0 0 1 0 0) " stroke-linecap="round" />
	<path d="M 87.199 36.097 c -0.198 -0.188 -0.463 -0.287 -0.739 -0.274 c -6.115 0.303 -12.758 1.319 -20.904 3.199 c -0.271 0.063 -0.504 0.235 -0.643 0.476 c -0.139 0.241 -0.17 0.529 -0.088 0.794 l 0.756 2.44 c -6.001 -2.252 -14.393 -3.541 -21.667 -3.261 c -4.009 0 -8.883 2.827 -13.04 7.561 c -3.89 4.43 -6.028 9.312 -5.581 12.74 c 0.034 0.258 0.167 0.492 0.371 0.654 c 1.466 1.161 3.017 1.744 4.665 1.744 c 2.774 -0.001 5.824 -1.65 9.212 -4.965 c 2.368 -0.003 5.258 -1.544 6.528 -2.415 c 0.455 -0.313 0.571 -0.935 0.259 -1.39 c -0.313 -0.456 -0.935 -0.573 -1.391 -0.259 c -1.635 1.121 -4.215 2.193 -5.691 2.05 c -0.297 -0.025 -0.594 0.076 -0.806 0.289 c -5.864 5.879 -9.073 5.156 -11.199 3.63 c -0.146 -2.832 1.829 -6.992 5.136 -10.76 c 3.726 -4.244 8.147 -6.88 11.576 -6.881 c 7.69 -0.297 16.61 1.198 22.392 3.728 l 6.727 21.717 l -3.529 2.148 c -0.473 0.287 -0.622 0.902 -0.335 1.374 c 0.188 0.31 0.518 0.48 0.855 0.48 c 0.177 0 0.356 -0.047 0.519 -0.146 l 3.101 -1.887 l 0.195 0.63 c 0.13 0.419 0.517 0.704 0.955 0.704 H 86.51 c 0.553 0 1 -0.447 1 -1 V 36.821 C 87.51 36.547 87.397 36.286 87.199 36.097 z M 85.51 68.22 h -9.94 l -8.515 -27.488 c 7.094 -1.597 13.014 -2.512 18.455 -2.853 V 68.22 z" style="stroke: none; stroke-width: 1; stroke-dasharray: none; stroke-linecap: butt; stroke-linejoin: miter; stroke-miterlimit: 10; fill: rgb(0,0,0); fill-rule: nonzero; opacity: 1;" transform=" matrix(1 0 0 1 0 0) " stroke-linecap="round" />
	<path d="M 45 34.269 c -9.448 0 -17.134 -7.687 -17.134 -17.135 C 27.866 7.687 35.552 0 45 0 c 9.448 0 17.135 7.687 17.135 17.134 C 62.135 26.583 54.448 34.269 45 34.269 z M 45 2 c -8.345 0 -15.134 6.789 -15.134 15.134 S 36.655 32.269 45 32.269 c 8.346 0 15.135 -6.79 15.135 -15.135 S 53.346 2 45 2 z" style="stroke: none; stroke-width: 1; stroke-dasharray: none; stroke-linecap: butt; stroke-linejoin: miter; stroke-miterlimit: 10; fill: rgb(0,0,0); fill-rule: nonzero; opacity: 1;" transform=" matrix(1 0 0 1 0 0) " stroke-linecap="round" />
	<path d="M 43.405 23.279 c -0.002 0 -0.004 0 -0.006 0 c -0.313 -0.002 -0.606 -0.15 -0.793 -0.4 l -5.393 -7.189 c -0.332 -0.442 -0.242 -1.069 0.2 -1.4 c 0.443 -0.333 1.069 -0.241 1.4 0.2 l 4.604 6.137 l 7.78 -10.103 c 0.335 -0.438 0.965 -0.52 1.402 -0.183 s 0.519 0.965 0.182 1.403 L 44.198 22.89 C 44.008 23.135 43.715 23.279 43.405 23.279 z" style="stroke: none; stroke-width: 1; stroke-dasharray: none; stroke-linecap: butt; stroke-linejoin: miter; stroke-miterlimit: 10; fill: rgb(0,0,0); fill-rule: nonzero; opacity: 1;" transform=" matrix(1 0 0 1 0 0) " stroke-linecap="round" />
</g>
</svg>