<svg id="Layer_1" data-name="Layer 1" xmlns="http://www.w3.org/2000/svg" viewBox="0 0 453.94 539.9">
<defs>
<style>.cls-1{fill:none;stroke:#000;stroke-miterlimit:10;stroke-width:5px;}</style>
</defs>
<path class="cls-1" d="M541.32,737.74c23.07-14.81,135.3-91.61,162-211.7,29.49-132.77-75-212.84-161.14-211.92C456,313.2,351.53,393.27,381,526c26.68,120.09,137.8,196.89,160.87,211.7" transform="translate(-312.93 -311.62)"/><circle class="cls-1" cx="226.97" cy="153.27" r="79.2"/><path d="M649.83,734.55a27,27,0,0,1-1.12,5c11.76,4.86,18.4,10.38,18.4,15.67,0,7.54-13.5,15.56-36.12,21.45-24.3,6.32-55.61,9.81-91.09,9.81-34.43,0-66.78-3.49-91.08-9.81-22.62-5.89-36.12-13.91-36.12-21.45,0-7.23,12.4-14.9,33.33-20.7a29,29,0,0,1,0-5.19c-17.84,4.8-38.32,13.1-38.32,25.89,0,13.15,21.67,21.55,39.86,26.29,24.7,6.43,57.49,10,92.34,10s67.65-3.54,92.35-10c18.18-4.74,39.86-13.14,39.86-26.29C672.11,746.2,662,739.44,649.83,734.55Z" transform="translate(-312.93 -311.62)"/><path d="M728.63,753.84a45.94,45.94,0,0,1-1.93,8.53c20.19,8.33,31.59,17.81,31.59,26.89,0,13-23.18,26.72-62,36.83C654.56,837,599,842.93,539.9,842.93s-114.66-6-156.37-16.84c-38.83-10.11-62-23.87-62-36.83,0-12.41,21.29-25.57,57.22-35.54a49.92,49.92,0,0,1,0-8.9c-30.63,8.24-65.8,22.49-65.8,44.44,0,22.58,37.22,37,68.44,45.14,42.4,11,98.7,17.11,158.53,17.11S656,845.43,698.44,834.4c31.22-8.13,68.43-22.56,68.43-45.14C766.87,773.85,749.55,762.25,728.63,753.84Z" transform="translate(-312.93 -311.62)"/>
</svg>