<svg xmlns="http://www.w3.org/2000/svg" viewBox="0 0 64 64">
    <title>64-8</title>
    <g id="Pencil">
        <path d="M61.2217,2.7783a9.4848,9.4848,0,0,0-13.4141,0L6.293,44.293a1.0024,1.0024,0,0,0-.2417.3906l-6,18a1,1,0,0,0,1.2651,1.2651l18-6a1.0024,1.0024,0,0,0,.3906-.2417L61.2217,16.1924A9.4961,9.4961,0,0,0,61.2217,2.7783ZM54,20.5859,43.4141,10,45,8.4141,55.5859,19ZM20.0124,54.5735,15.5547,54.44l-.1328-4.4482L48,17.4141,52.5859,22ZM9.5552,48.439l-.1291-4.451L42,11.4141,46.5859,16,14.0172,48.5688ZM7.5027,46.654,7.5835,49.44a.9994.9994,0,0,0,.97.9707l4.6319.1348a.4768.4768,0,0,0,.2595.2627l.1384,4.6333a1,1,0,0,0,.97.97l2.8.0837L10.11,58.9092A10.0481,10.0481,0,0,0,5.0908,53.89ZM4.457,55.7915A8.0512,8.0512,0,0,1,8.2085,59.543L2.5811,61.4189ZM59.8076,14.7783,57,17.5859,46.4141,7l2.8076-2.8076A7.4854,7.4854,0,1,1,59.8076,14.7783Z" style="fill:#1b1a1e"/>
        <path d="M54.5137,2.999a6.44,6.44,0,0,0-4.585,1.9,1,1,0,0,0,1.4141,1.4141,4.484,4.484,0,0,1,6.3437,0,1,1,0,1,0,1.4141-1.4141A6.44,6.44,0,0,0,54.5137,2.999Z" style="fill:#1b1a1e"/>
    </g>
</svg>