<svg id="Layer_1" data-name="Layer 1" xmlns="http://www.w3.org/2000/svg" viewBox="0 0 1080 1080"><defs><style>.cls-1{fill:none;stroke:#000;stroke-miterlimit:10;stroke-width:2px;}</style></defs><path class="cls-1" d="M760.33,381.47c.56-4.13,1.13-8.4,1.28-12.65.3-8.54-3-17.63-10.24-28.62a128.48,128.48,0,0,0-17.28-20.75l-41.44-40.53c-8.38-8.21-18.21-18.05-27.54-28.88-13-15.1-30.16-17.26-42.25-16.41-15.15,1.07-27.78,1.57-39.75,1.57H369.42c-16.14,0-29.48,8.29-39.65,24.65a77.24,77.24,0,0,0-11.4,40.88v488c0,20.38,5.32,35.7,15.8,45.53,10.92,10.25,24.91,12.28,34.27,12.28,1.5,0,2.88-.06,4.11-.13,5.23-.34,9.85-.5,14.15-.5H707.38a56.53,56.53,0,0,0,30.52-8.65c23.38-14.91,23.38-39.83,23.38-54.71,0-7.87-.57-16-1.12-23.89S759,742.45,759,734.39V396.06A110.62,110.62,0,0,1,760.33,381.47Zm-1.16,377.25c.55,7.86,1.11,16,1.11,23.82,0,14.68,0,39.25-22.91,53.87a55.62,55.62,0,0,1-30,8.49H386.7c-4.32,0-9,.16-14.21.5-8.74.56-25.24-.24-37.64-11.87-10.27-9.64-15.48-24.71-15.48-44.81v-488a76.25,76.25,0,0,1,11.25-40.35c10-16,23-24.18,38.8-24.18H583.11c12,0,24.64-.5,39.82-1.57,11.86-.83,28.69,1.27,41.42,16.06,9.36,10.86,19.2,20.72,27.6,28.94l41.44,40.53a128,128,0,0,1,17.15,20.59c7.16,10.81,10.36,19.72,10.07,28-.15,4.2-.72,8.45-1.27,12.55A112.29,112.29,0,0,0,758,396.06V734.39C758,742.49,758.61,750.74,759.17,758.72Z"/><polygon class="cls-1" points="720.23 354.15 633.95 354.15 633.95 269.4 634.95 269.4 634.95 353.15 720.23 353.15 720.23 354.15"/><path class="cls-1" d="M471.13,664.37a9.7,9.7,0,0,1-9.69-9.7V544a9.69,9.69,0,0,1,19.38,0V654.67A9.71,9.71,0,0,1,471.13,664.37Zm0-129.11a8.7,8.7,0,0,0-8.69,8.69V654.67a8.69,8.69,0,1,0,17.38,0V544A8.7,8.7,0,0,0,471.13,535.26Z"/><path class="cls-1" d="M529,662.24a9.62,9.62,0,0,1-9.6-9.61V479.87a9.61,9.61,0,1,1,19.21,0V652.63A9.62,9.62,0,0,1,529,662.24Zm0-191a8.61,8.61,0,0,0-8.6,8.61V652.63a8.61,8.61,0,1,0,17.21,0V479.87A8.62,8.62,0,0,0,529,471.26Z"/><path class="cls-1" d="M584.4,662.24a9.53,9.53,0,0,1-9.52-9.52V554a9.52,9.52,0,0,1,19,0v98.71A9.53,9.53,0,0,1,584.4,662.24Zm0-116.75a8.53,8.53,0,0,0-8.52,8.52v98.71a8.52,8.52,0,0,0,17,0V554A8.53,8.53,0,0,0,584.4,545.49Z"/><path class="cls-1" d="M641.94,662.24a9.88,9.88,0,0,1-9.87-9.86V515.52a9.87,9.87,0,0,1,19.73,0V652.38A9.88,9.88,0,0,1,641.94,662.24Zm0-155.58a8.88,8.88,0,0,0-8.87,8.86V652.38a8.87,8.87,0,0,0,17.73,0V515.52A8.88,8.88,0,0,0,641.94,506.66Z"/><path class="cls-1" d="M409.28,428.73h-1.59a10.18,10.18,0,0,0-10.17,10.17V712.15a10.18,10.18,0,0,0,10.17,10.17h1.59a9.79,9.79,0,0,0,2.83-.42h-3.74v-.1l-.1,0h0l-.08,0a.76.76,0,0,1-.16,0h0a.61.61,0,0,1-.28-.07.66.66,0,0,1-.15,0,.48.48,0,0,1-.16-.08.57.57,0,0,1-.34,0,.65.65,0,0,1-.22-.11.82.82,0,0,1-.27,0,.54.54,0,0,1-.2-.1s-.07,0-.11,0l-.16,0a.57.57,0,0,1-.36-.28s0,0,0-.06l-.57-.16h-.53v-.17a9.13,9.13,0,0,1-6.09-8.59V438.9a9.18,9.18,0,0,1,9.17-9.17h1.59a9.18,9.18,0,0,1,9.18,9.17V701h1V438.9A10.19,10.19,0,0,0,409.28,428.73Z"/><path class="cls-1" d="M679.64,699.94H418.45v1H679.64a10.48,10.48,0,1,1,0,21H408.37v0a10.5,10.5,0,0,1-9.85-10.45,10.12,10.12,0,0,1,.1-1.36v-3.51a11.36,11.36,0,0,0-1.1,4.87A11.49,11.49,0,0,0,409,722.9H679.64a11.48,11.48,0,1,0,0-23Z"/></svg>