<?xml version="1.0" encoding="utf-8"?>
<!-- Generator: Adobe Illustrator 19.0.1, SVG Export Plug-In . SVG Version: 6.00 Build 0)  -->
<svg version="1.1" id="Keys" xmlns="http://www.w3.org/2000/svg" xmlns:xlink="http://www.w3.org/1999/xlink" x="0px" y="0px"
	 viewBox="0 0 128 128" style="enable-background:new 0 0 128 128;" xml:space="preserve">
<style type="text/css">
	.st0{display:none;fill:#1C252C;}
	.st1{fill:#1C252C;}
</style>
<g id="row3">
	<path id="key:4_3_" class="st0" d="M89.2,3.4c-2-2.3-4.9-3.4-8.5-3.4C71.9,0.2,58.9,0.1,52,0c-2.1,0-3.7,0-4.5,0
		c-2.5,0-6.3,1.1-8.9,4c-1.6,1.8-3.3,5-2.7,10.1c1.2,9,5.3,45.7,5.4,46.1l0.2,1.2l1.2,0.4c0,0,2.4,0.9,2.7,2.9
		c0.1,0.8-0.1,1.9-0.2,3c-0.4,2.5-0.9,6.3,2.9,7.7c2.5,0.9,6.3,1.1,8.5,1.1v7.8l5.1,8.6L57,98.2v3.7l2.5,3.4l-2.5,2.7l3.2,5.1
		l-1.4,6.5l7.1,8.4l1.4-0.9c2-1.2,12.2-7.7,12.7-12.9l0-39.2l4.6-8.9c0.8-1,3.8-4.9,4.1-10.5c0.2-5.5,3.5-39.5,3.5-39.7
		C92.1,15.6,93.2,8,89.2,3.4z M68.4,121.6c-0.6,0.4-1.2,0.8-1.8,1.2l-3.6-4.3l1.4-6.1l-2.4-3.9l2.7-2.8l-3.6-5v-1l5.5-6.4l-6-10.1
		V72.5l-0.7,0V65h8.6V121.6z M88.2,15.4c-0.1,1.4-3.3,34.5-3.5,40.1c-0.2,4.8-3.2,8.2-3.2,8.2l-0.2,0.2L76,74v39.8
		c-0.2,1.3-2.3,3.5-5,5.8V62.4H57.2v10.2c-2.2,0-5.8-0.2-7.9-0.9c-0.6-0.2-0.8-0.5-0.3-3.3c0.2-1.3,0.4-2.8,0.2-4.2
		c-0.4-3-2.7-4.7-4.1-5.5c-0.7-6.2-4.2-36.8-5.3-45c-0.4-2.9,0.2-5.3,1.7-7c1.9-2.1,4.6-2.7,6-2.7c0.8,0,2.4,0,4.5,0
		c7,0.1,19.9,0.2,28.8,0c2.4-0.1,4.2,0.6,5.4,2C89,9.2,88.2,15.2,88.2,15.4z M79.8,20.5H47.9c-2.4,0-4.4-2-4.4-4.4V14
		c0-2.4,2-4.4,4.4-4.4h31.9c2.4,0,4.4,2,4.4,4.4v2.1C84.2,18.6,82.2,20.5,79.8,20.5z M47.9,12.3c-1,0-1.7,0.8-1.7,1.7v2.1
		c0,1,0.8,1.7,1.7,1.7h31.9c1,0,1.7-0.8,1.7-1.7V14c0-1-0.8-1.7-1.7-1.7H47.9z"/>
	<path id="key:3_3_" class="st0" d="M87.7,19c-1.2-1.2-2.5-2.6-4-4.3c-2.8-3.2-6.3-7.3-11.3-11.1c-6.2-4.8-13.1-4.8-19,0
		c-3.3,2.8-6.8,7.2-9.8,11.1c-1.6,2.1-3.1,4-4.3,5.2c-0.4,0.5-0.9,0.9-1.3,1.4c-3.9,4.1-7.2,7.6-6.8,14.2
		c0.3,5.7,7.1,12.2,12.1,16.9c1.3,1.2,2.4,2.2,3.1,3.1c3.1,3.3,2.9,9.3,2.9,9.3l-0.1,1.9H54l2.3,57.2l6.7,0.3l2.1,3.8l10.8-9.5
		l-4.2-8.2L76,106l-3.3-3.2v-1l3.1-4.2l-2.3-3.7l4.7-6.9l-1.7-2l1.2-0.6V79l-4.2-3.4l2.8-4.5v-3.2h5.9v-7.4c0-2,6.5-12.8,12.4-20.6
		C100.9,31.7,91.3,22.5,87.7,19z M74.1,80.8V82l-3.4,1.7l3,3.5l-4.5,6.6l2.3,3.6l-2.4,3.2v3.7l1.7,1.7l-3.6,3.6l4.2,8l-5.2,4.5
		l-0.8-1.4V61.6h7.5v8.8l-4.2,6.1L74.1,80.8z M91.7,37.7c-2.6,3.5-13.1,18.4-13.1,22.9v3.6h-3.3v-5.1H62.9v61.4l-3-0.1L57.6,63H53
		c-0.2-2.5-1-7-3.9-10.1c-0.8-0.9-2-2-3.3-3.2c-4.2-4-10.6-10.1-10.9-14.4c-0.3-4.9,2.1-7.5,5.8-11.4c0.4-0.5,0.9-0.9,1.3-1.4
		c1.3-1.4,2.8-3.4,4.5-5.5c2.9-3.8,6.3-8,9.3-10.5c4.5-3.8,9.5-3.7,14.3,0c4.6,3.6,7.9,7.3,10.7,10.6c1.5,1.7,2.8,3.3,4.2,4.5
		C90.1,26.6,95.5,32.7,91.7,37.7z M64.1,41.1c-8.9,0-15.6-5.3-17.5-7.9c-1.4-2-1.2-4.7,0.5-6.6c1.6-1.7,4.5-2.8,8.1-0.7
		c4.8,2.7,13.1,3.5,18.8,0c4.3-2.7,6.8-1.1,7.7-0.2c1.8,1.7,2.1,4.6,0.8,7.2C80.4,37.1,70.2,41.1,64.1,41.1z M51.4,27.3
		c-0.9,0-1.8,0.3-2.4,1c-0.8,0.9-1.2,2.3-0.4,3.5c1.6,2.2,7.6,6.9,15.5,6.9c6,0,14.8-4.1,16.2-6.9c0.8-1.6,0.7-3.4-0.2-4.3
		c-1-0.9-2.7-0.7-4.7,0.5c-6.7,4.1-16,3.1-21.4,0C53.1,27.5,52.2,27.3,51.4,27.3z M64.1,23.5c-3.9,0-7-3.2-7-7c0-3.9,3.2-7,7-7
		s7,3.2,7,7C71.1,20.4,68,23.5,64.1,23.5z M64.1,11.9c-2.5,0-4.6,2-4.6,4.6s2,4.6,4.6,4.6c2.5,0,4.6-2,4.6-4.6S66.6,11.9,64.1,11.9z
		"/>
	<path id="key:2_1_" class="st0" d="M51.8,18.2h24.3c2.8,0,5-2.3,5-5c0-2.8-2.2-5-5-5H51.8c-2.8,0-5,2.3-5,5
		C46.8,16,49,18.2,51.8,18.2z M51.8,10.9h24.3c1.3,0,2.3,1,2.3,2.3s-1,2.3-2.3,2.3H51.8c-1.3,0-2.3-1-2.3-2.3S50.5,10.9,51.8,10.9z
		 M51.8,18.2h24.3c2.8,0,5-2.3,5-5c0-2.8-2.2-5-5-5H51.8c-2.8,0-5,2.3-5,5C46.8,16,49,18.2,51.8,18.2z M51.8,10.9h24.3
		c1.3,0,2.3,1,2.3,2.3s-1,2.3-2.3,2.3H51.8c-1.3,0-2.3-1-2.3-2.3S50.5,10.9,51.8,10.9z M51.8,18.2h24.3c2.8,0,5-2.3,5-5
		c0-2.8-2.2-5-5-5H51.8c-2.8,0-5,2.3-5,5C46.8,16,49,18.2,51.8,18.2z M51.8,10.9h24.3c1.3,0,2.3,1,2.3,2.3s-1,2.3-2.3,2.3H51.8
		c-1.3,0-2.3-1-2.3-2.3S50.5,10.9,51.8,10.9z M44.8,41.2c6.7,3.2,8.3,5.4,8,10.8c-0.3,5.4,1.3,8.3,2.2,9.6v12.3l2.1,3.8L51.9,83
		l5,6.2l-1.2,2.5l2.2,3.6l-3.2,3.5l3.7,5.5v1.4l-3.5,8.1L67.5,128l8.8-13.4v-5l-3.1-5.3l2.9-4l-1.1-5.2l-1.6-2.4l2.1-1.6L74.8,88
		l1.9-2.5l-0.5-5L74,78.1l2.6-2.5V62.9l0-0.2c-0.8-6.8-0.5-17.3,2.7-19.3c6.3-4,15.9-10.1,14.6-16.9c-0.1-1.1-0.9-6.6-2.8-12.1
		c-1.9-5.5-4.9-11.2-9.5-12.8C78.1,0.5,72.9,0,67.4,0c-9,0-18.6,1.2-21.7,2.6c-6.1,2.7-10.6,15.6-11.5,21.6
		C33,31.5,36.6,37.2,44.8,41.2z M64.1,118.1l-4.4-5l2.8-6.5v-3.5l-2.6-3.9l3.1-3.4l-2.7-4.3l1.3-2.8l-4.2-5.3l4.9-4.9l-3.1-5.6v-12
		l0.1-0.9l-0.8-0.6c0,0-1.8-1.8-1.5-7.1c0.1-1.4,0-2.6-0.2-3.8h7.4V118.1z M38.2,24.9c1.1-7,5.5-16.9,9.1-18.5
		c4.2-1.9,25.2-3.5,33-0.9c5.2,1.7,8.6,14.1,9.6,21.7c0.8,4.1-8.4,9.9-12.8,12.8c-6.4,4.1-5,19.7-4.6,23.1v10.8l-4.1,4.1l3.8,4.3
		l0.2,2.1l-2,2.6l0.5,2.4l-3.1,2.4l3.3,4.9l0.6,2.7l-3.4,4.7l3.9,6.6v2.7l-5.2,7.9l-0.1-0.1V45.7H56c-1.5-3.6-4.7-5.9-9.4-8.1
		C40,34.4,37.4,30.3,38.2,24.9z"/>
	<path id="key:1_3_" class="st0" d="M60.4,37.7v1.6h-0.7c-1.6,0-2.9,1.3-2.9,2.9c0,1.6,1.3,2.9,2.9,2.9h0.7v42.5h-0.7
		c-1.2,0-2.2,1-2.2,2.2c0,1.2,1,2.2,2.2,2.2c-1.2,0-2.2,1-2.2,2.2c0,1.2,1,2.2,2.2,2.2c-1.2,0-2.2,1-2.2,2.2c0,1.2,1,2.2,2.2,2.2
		h0.7v2.3h-2.2v3.3h-4.3v-4.7H38.1v5.2h7.4v4h-7.4v4.9h7.6v4.5h-7.6v4.5h16v-4.5h4.3v3.1h2v5.1h7.2v-27.6h0.7c1.2,0,2.2-1,2.2-2.2
		c0-1.2-1-2.2-2.2-2.2c1.2,0,2.2-1,2.2-2.2c0-1.2-1-2.2-2.2-2.2c1.2,0,2.2-1,2.2-2.2c0-1.2-1-2.2-2.2-2.2h-0.7V45h0.7
		c1.6,0,2.9-1.3,2.9-2.9c0-1.6-1.3-2.9-2.9-2.9h-0.7v-1.6c14.2-1.2,25.2-9.1,25.2-18.8C92.8,8.5,79.9,0,64,0
		C48.1,0,35.2,8.5,35.2,18.9C35.2,28.5,46.2,36.5,60.4,37.7z M55.6,9.2c3.5,0,6.6,1.8,8.4,4.5c1.8-2.7,4.9-4.5,8.4-4.5
		c5.6,0,10.1,4.5,10.1,10.1c0,5.6-4.5,10.1-10.1,10.1c-3.5,0-6.6-1.8-8.4-4.5c-1.8,2.7-4.9,4.5-8.4,4.5c-5.6,0-10.1-4.5-10.1-10.1
		C45.6,13.8,50.1,9.2,55.6,9.2z"/>
</g>
<g id="row2">
	<path id="key:4_5_" class="st0" d="M37.2,0l53.5,0C93.1,0,95,1.9,95,4.3l0,0.2l-6.4,64.6c0,1.1-0.3,2.4-9.7,8.5
		c-0.3,6.8-1.5,40-1.5,42.4c0,7.9-9.8,8.7-12.3,7.8c-3.9-1.4-4.3-4.5-5.1-6.5l-5.4-0.1v-13.5l5.9-3.4v-2.4l-7.7-2.3l0-1.7
		c0.1-7.3-0.2-16.1-0.7-17.6c-0.4-0.7-3.2-3.3-4.8-4.9c-3.9-3.7-5.1-4.9-5.2-6.3L33,4.3C33,1.9,34.9,0,37.2,0z M90.4,4.6H37.6
		L46.6,68c0.6,0.8,2.5,2.6,3.9,3.8c3.1,2.9,5,4.8,5.7,6.1c1.2,2.2,1.3,11.6,1.3,18l7.6,2.3v8.5l-5.9,3.4v6.3l4.4,0.1
		c0,0-0.3,5.5,3.1,6.7c1.1,0.4,6.1,0.1,6.1-3.4s1.5-42.1,1.6-43.8l0-1.2l1-0.7c3.5-2.2,7.5-5.1,8.7-6.2L90.4,4.6z M64,9.6
		c4.3,0,7.8,3.5,7.8,7.8s-3.5,7.8-7.8,7.8s-7.8-3.5-7.8-7.8S59.7,9.6,64,9.6z M64,22c2.6,0,4.7-2.1,4.7-4.7c0-2.6-2.1-4.7-4.7-4.7
		c-2.6,0-4.7,2.1-4.7,4.7C59.3,19.9,61.4,22,64,22z"/>
	<path id="key:3" class="st0" d="M58.9,90.1v16.4h2.9V90.1H58.9z M58.9,90.1v16.4h2.9V90.1H58.9z M64,13.7c-4,0-7.2,3.2-7.2,7.2
		c0,4,3.2,7.2,7.2,7.2s7.2-3.2,7.2-7.2C71.2,16.9,68,13.7,64,13.7z M64,25.2c-2.4,0-4.3-1.9-4.3-4.3c0-2.4,2-4.3,4.3-4.3
		s4.3,1.9,4.3,4.3C68.3,23.3,66.4,25.2,64,25.2z M64,13.7c-4,0-7.2,3.2-7.2,7.2c0,4,3.2,7.2,7.2,7.2s7.2-3.2,7.2-7.2
		C71.2,16.9,68,13.7,64,13.7z M64,25.2c-2.4,0-4.3-1.9-4.3-4.3c0-2.4,2-4.3,4.3-4.3s4.3,1.9,4.3,4.3C68.3,23.3,66.4,25.2,64,25.2z
		 M64,13.7c-4,0-7.2,3.2-7.2,7.2c0,4,3.2,7.2,7.2,7.2s7.2-3.2,7.2-7.2C71.2,16.9,68,13.7,64,13.7z M64,25.2c-2.4,0-4.3-1.9-4.3-4.3
		c0-2.4,2-4.3,4.3-4.3s4.3,1.9,4.3,4.3C68.3,23.3,66.4,25.2,64,25.2z M58.9,90.1v16.4h2.9V90.1H58.9z M64,13.7c-4,0-7.2,3.2-7.2,7.2
		c0,4,3.2,7.2,7.2,7.2s7.2-3.2,7.2-7.2C71.2,16.9,68,13.7,64,13.7z M64,25.2c-2.4,0-4.3-1.9-4.3-4.3c0-2.4,2-4.3,4.3-4.3
		s4.3,1.9,4.3,4.3C68.3,23.3,66.4,25.2,64,25.2z M64,13.7c-4,0-7.2,3.2-7.2,7.2c0,4,3.2,7.2,7.2,7.2s7.2-3.2,7.2-7.2
		C71.2,16.9,68,13.7,64,13.7z M64,25.2c-2.4,0-4.3-1.9-4.3-4.3c0-2.4,2-4.3,4.3-4.3s4.3,1.9,4.3,4.3C68.3,23.3,66.4,25.2,64,25.2z
		 M64,13.7c-4,0-7.2,3.2-7.2,7.2c0,4,3.2,7.2,7.2,7.2s7.2-3.2,7.2-7.2C71.2,16.9,68,13.7,64,13.7z M64,25.2c-2.4,0-4.3-1.9-4.3-4.3
		c0-2.4,2-4.3,4.3-4.3s4.3,1.9,4.3,4.3C68.3,23.3,66.4,25.2,64,25.2z M64,13.7c-4,0-7.2,3.2-7.2,7.2c0,4,3.2,7.2,7.2,7.2
		s7.2-3.2,7.2-7.2C71.2,16.9,68,13.7,64,13.7z M64,25.2c-2.4,0-4.3-1.9-4.3-4.3c0-2.4,2-4.3,4.3-4.3s4.3,1.9,4.3,4.3
		C68.3,23.3,66.4,25.2,64,25.2z M64,13.7c-4,0-7.2,3.2-7.2,7.2c0,4,3.2,7.2,7.2,7.2s7.2-3.2,7.2-7.2C71.2,16.9,68,13.7,64,13.7z
		 M64,25.2c-2.4,0-4.3-1.9-4.3-4.3c0-2.4,2-4.3,4.3-4.3s4.3,1.9,4.3,4.3C68.3,23.3,66.4,25.2,64,25.2z M64,13.7
		c-4,0-7.2,3.2-7.2,7.2c0,4,3.2,7.2,7.2,7.2s7.2-3.2,7.2-7.2C71.2,16.9,68,13.7,64,13.7z M64,25.2c-2.4,0-4.3-1.9-4.3-4.3
		c0-2.4,2-4.3,4.3-4.3s4.3,1.9,4.3,4.3C68.3,23.3,66.4,25.2,64,25.2z M64,13.7c-4,0-7.2,3.2-7.2,7.2c0,4,3.2,7.2,7.2,7.2
		s7.2-3.2,7.2-7.2C71.2,16.9,68,13.7,64,13.7z M64,25.2c-2.4,0-4.3-1.9-4.3-4.3c0-2.4,2-4.3,4.3-4.3s4.3,1.9,4.3,4.3
		C68.3,23.3,66.4,25.2,64,25.2z M64,13.7c-4,0-7.2,3.2-7.2,7.2c0,4,3.2,7.2,7.2,7.2s7.2-3.2,7.2-7.2C71.2,16.9,68,13.7,64,13.7z
		 M64,25.2c-2.4,0-4.3-1.9-4.3-4.3c0-2.4,2-4.3,4.3-4.3s4.3,1.9,4.3,4.3C68.3,23.3,66.4,25.2,64,25.2z M64,0
		C44.3,0,28.3,16,28.3,35.7c0,13,6.9,24.8,18.2,31.1v13.7l5.6,7.5l0.3,21.2c-1.7,0-3.3,0.7-4.5,1.9c-1.2,1.2-1.9,2.8-1.9,4.5
		c0,3.5,2.9,6.4,6.4,6.4h2.3c0.4,1.4,1.1,2.6,2.1,3.6c1.5,1.5,3.6,2.4,5.8,2.4c3.8,0,6.9-2.6,7.9-6h2.3c1.7,0,3.3-0.7,4.5-1.9
		c1.2-1.2,1.9-2.8,1.9-4.5c0-3.3-2.5-6-5.8-6.3l0-4.7c2.8-1.3,8.1-4.5,8.1-8.7c0-3.2-4.8-8.3-4.8-8.3l5.4-11v-10
		C93,60.2,99.7,48.4,99.7,35.7C99.7,16,83.7,0,64,0z M32.8,35.9c0-17.2,14-31.2,31.2-31.2s31.2,14,31.2,31.2S81.2,67.1,64,67.1
		S32.8,53.1,32.8,35.9z M78,74.6c0,0-5.4,10.8-5.6,10.9l-3.8,1.4l3.2,2.4c2.2,1.6,5.3,4.7,5.3,6.7c0,1.5-3.6,4-6.8,5.3l-1.3,0.5v7.3
		l-0.1,4.5h3.8c1.2,0,2.1,0.9,2.1,2.1c0,0.6-0.2,1.1-0.6,1.5c-0.4,0.4-0.9,0.6-1.5,0.6l-6.3,0v2.1c0,2.2-1.7,3.9-3.9,3.9
		c-1,0-2-0.4-2.7-1.1c-0.7-0.7-1.2-1.7-1.2-2.8v-2.1h-6.2c-1.2,0-2.1-0.9-2.1-2.1c0-0.6,0.2-1.1,0.6-1.5c0.4-0.4,0.9-0.6,1.5-0.6H57
		l-0.3-4.5l-0.4-22.4l-5.6-7.5V67.2c4.1,1.7,8.6,2.7,13.3,2.7c5,0,9.8-1.1,14.1-3.1L78,74.6z"/>
	<path id="key:2_5_" class="st0" d="M74.8,10.8v29.2l13-7.9V19.4L74.8,10.8z M83.5,29.7l-4.4,2.7V18.8l4.4,2.9V29.7z M74.8,10.8
		v29.2l13-7.9V19.4L74.8,10.8z M83.5,29.7l-4.4,2.7V18.8l4.4,2.9V29.7z M74.8,10.8v29.2l13-7.9V19.4L74.8,10.8z M83.5,29.7l-4.4,2.7
		V18.8l4.4,2.9V29.7z M94.7,15.1C94.1,14.5,80.1,0,63.6,0C47.1,0,33.9,13.1,33.3,13.7l-0.6,0.6v32l7.6,7.5v63.3L50,128l12.3-15.1
		l-3.7-4.8l3.7-3.4l-2.3-4.7l2.2-3.5l-1.8-4l3.6-4.1v-8.7l-3.1-3.2l3.1-3.5v-6.5h4.2l0.9-14.7l25.1-14.4l1-21.8L94.7,15.1z M90.2,35
		l-25,14.3l-0.8,12.9h-4.5v9.2l-4.6,5.2l4.6,4.8v5.3l-4.4,4.9l2,4.4l-2.3,3.5l1.9,4l-4.3,3.9l4,5.2l-6.1,7.5V53.5h-2.9v65.7
		l-3.3-3.6V52L37,44.5V16.1c2.7-2.5,13.7-11.8,26.6-11.8c12.8,0,24.5,10.4,27.4,13.1L90.2,35z"/>
	<path id="key:1_5_" class="st0" d="M44.2,10.1V32l21.9-21.9H44.2z M47.2,13.1h11.7L47.2,24.8V13.1z M44.2,10.1V32l21.9-21.9H44.2z
		 M47.2,13.1h11.7L47.2,24.8V13.1z M44.2,10.1V32l21.9-21.9H44.2z M47.2,13.1h11.7L47.2,24.8V13.1z M88.5,0H39.5c-3.9,0-7,3.1-7,7
		v39.7c0,3.9,3.1,7,7,7h6v11.4h7.1v5.4l3.8,9.9l-6.7,7.8l0,6.5l6.3,6.4l-5.5,4.7l5.5,4.8l-5.6,4.9L64.7,128l11.3-9.8V63.1h6.4v-9.4
		h6c3.9,0,7-3.1,7-7V7C95.5,3.1,92.3,0,88.5,0z M91,46.6c0,1.4-1.1,2.5-2.5,2.5H78v9.4h-6.4v57.6l-3.7,3.2V50.6h-3v71.3l-0.2,0.1
		l-7.4-6.6l5.7-4.9l-5.5-4.7l5.2-4.5l-8.4-8.5l0-3l7.4-8.6l-4.5-11.6v-9.1H50V49.2H39.5c-1.4,0-2.5-1.1-2.5-2.5V7
		c0-1.4,1.1-2.5,2.5-2.5h48.9C89.9,4.5,91,5.6,91,7V46.6z"/>
</g>
<g id="row1">
	<path id="key:4_2_" class="st0" d="M63.7,128l-13.5-17.6l4.1-6l-4.2-4.9l4.3-5.6l-3.6-5.4v-9.6l5-7.2l-5-5.2V50.6h-5.3
		c-9.1,0-16.5-7.4-16.5-16.5c0-4.4,1.7-8.5,4.9-11.7c3.1-3.1,7.3-4.8,11.7-4.8h0.1C46,7.8,54.1,0,64,0c4.9,0,9.5,1.9,13,5.4
		c3.3,3.3,5.2,7.6,5.4,12.2h0.1C91.6,17.6,99,25,99,34.1c0,4.4-1.7,8.5-4.9,11.7c-3.1,3.1-7.3,4.9-11.7,4.9h-5.3v60.5L63.7,128z
		 M56,110.2l7.8,10.2l8.7-10.9V45.9h9.9c3.1,0,6.1-1.2,8.4-3.5c2.2-2.2,3.5-5.2,3.5-8.4c0-6.5-5.3-11.8-11.8-11.8h-4.7v-3.8
		c0-3.7-1.4-7.1-4-9.7c-2.6-2.6-6.1-4-9.7-4c-7.6,0-13.8,6.2-13.8,13.8v3.8h-4.7c-3.2,0-6.1,1.2-8.4,3.5c-2.2,2.2-3.5,5.2-3.5,8.4
		c0,6.5,5.3,11.8,11.8,11.8h9.9v18.6l6.4,6.6l-6.4,9.1V87l4.7,7.1l-4,5.2l4.1,4.8L56,110.2z M64,25.7c-4,0-7.2-3.2-7.2-7.2
		s3.2-7.2,7.2-7.2s7.2,3.2,7.2,7.2S68,25.7,64,25.7z M64,14.4c-2.2,0-4.1,1.8-4.1,4.1c0,2.2,1.8,4.1,4.1,4.1c2.2,0,4.1-1.8,4.1-4.1
		C68.1,16.2,66.2,14.4,64,14.4z"/>
	<path id="key:3_1_" class="st0" d="M80.1,22.3c0.6-1.7,1-3.6,1-5.6C81.1,7.5,73.6,0,64.4,0c-9.2,0-16.7,7.5-16.7,16.7
		c0,2,0.3,3.8,1,5.6h-0.4c-9.2,0-16.7,7.5-16.7,16.7s7.5,16.7,16.7,16.7c3.6,0,7-1.2,9.7-3.1v12.9h3.2l0,33.3h-4.7v3.9h-3.6v-7.1H43
		v6.4h3.5v16H43v6.4h9.9v-7.1h3.6v3.9h4.7v6.7h6.4l0-62.5h3.2V53.2c2.6,1.6,5.6,2.6,8.9,2.6c9.2,0,16.7-7.5,16.7-16.7
		C96.4,29.9,89.1,22.5,80.1,22.3z M48.3,49.3C42.6,49.3,38,44.7,38,39c0-5.7,4.6-10.3,10.3-10.3S58.6,33.3,58.6,39
		C58.6,44.7,54,49.3,48.3,49.3z M64,33.4C64,33.4,64,33.4,64,33.4C64,33.4,64,33.4,64,33.4L64,33.4z M64.4,27
		c-5.7,0-10.3-4.6-10.3-10.3c0-5.7,4.6-10.3,10.3-10.3c5.7,0,10.3,4.6,10.3,10.3C74.7,22.4,70.1,27,64.4,27z M79.7,49.3
		c-5.7,0-10.3-4.6-10.3-10.3c0-5.7,4.6-10.3,10.3-10.3C85.4,28.7,90,33.3,90,39C90,44.7,85.4,49.3,79.7,49.3z"/>
	<path id="key:2_2_" class="st1" d="M64,14.1c-4.6,0-8.3,3.7-8.3,8.3c0,4.6,3.7,8.3,8.3,8.3c4.6,0,8.3-3.7,8.3-8.3
		C72.3,17.8,68.6,14.1,64,14.1z M64,27.4c-2.8,0-5-2.2-5-5c0-2.8,2.2-5,5-5c2.8,0,5,2.2,5,5C69,25.1,66.8,27.4,64,27.4z M64,14.1
		c-4.6,0-8.3,3.7-8.3,8.3c0,4.6,3.7,8.3,8.3,8.3c4.6,0,8.3-3.7,8.3-8.3C72.3,17.8,68.6,14.1,64,14.1z M64,27.4c-2.8,0-5-2.2-5-5
		c0-2.8,2.2-5,5-5c2.8,0,5,2.2,5,5C69,25.1,66.8,27.4,64,27.4z M64,14.1c-4.6,0-8.3,3.7-8.3,8.3c0,4.6,3.7,8.3,8.3,8.3
		c4.6,0,8.3-3.7,8.3-8.3C72.3,17.8,68.6,14.1,64,14.1z M64,27.4c-2.8,0-5-2.2-5-5c0-2.8,2.2-5,5-5c2.8,0,5,2.2,5,5
		C69,25.1,66.8,27.4,64,27.4z M64,0C45.5,0,30.4,15.1,30.4,33.6c0,12.1,6.4,23.1,16.9,29.1v55.8l12.3,9.4l13.5-18.4L68.7,97l3.8-2.6
		V82.5l8.3-3.4V62.8c10.4-6,16.8-17,16.8-29.1C97.6,15.1,82.5,0,64,0z M77.2,59.1l-1.3,0.7v16l-8.3,3.4v12.6l-4.7,3.3l4.8,13.6
		l-6.9,9.4V62.7h-3.3v57.4l-5.2-4V59.8l-1.3-0.7c-9.6-5-15.5-14.7-15.5-25.5C35.3,17.8,48.2,4.9,64,4.9c15.8,0,28.7,12.9,28.7,28.7
		C92.7,44.4,86.8,54.2,77.2,59.1z"/>
	<path class="st0" d="M64,11.2c-3.6,0-6.6,2.9-6.6,6.6c0,3.6,2.9,6.6,6.6,6.6c3.6,0,6.6-2.9,6.6-6.6C70.6,14.1,67.6,11.2,64,11.2z
		 M64,20.9c-1.7,0-3.1-1.4-3.1-3.1c0-1.7,1.4-3.1,3.1-3.1c1.7,0,3.1,1.4,3.1,3.1C67.1,19.5,65.7,20.9,64,20.9z M64,11.2
		c-3.6,0-6.6,2.9-6.6,6.6c0,3.6,2.9,6.6,6.6,6.6c3.6,0,6.6-2.9,6.6-6.6C70.6,14.1,67.6,11.2,64,11.2z M64,20.9
		c-1.7,0-3.1-1.4-3.1-3.1c0-1.7,1.4-3.1,3.1-3.1c1.7,0,3.1,1.4,3.1,3.1C67.1,19.5,65.7,20.9,64,20.9z M64,11.2
		c-3.6,0-6.6,2.9-6.6,6.6c0,3.6,2.9,6.6,6.6,6.6c3.6,0,6.6-2.9,6.6-6.6C70.6,14.1,67.6,11.2,64,11.2z M64,20.9
		c-1.7,0-3.1-1.4-3.1-3.1c0-1.7,1.4-3.1,3.1-3.1c1.7,0,3.1,1.4,3.1,3.1C67.1,19.5,65.7,20.9,64,20.9z M64,11.2
		c-3.6,0-6.6,2.9-6.6,6.6c0,3.6,2.9,6.6,6.6,6.6c3.6,0,6.6-2.9,6.6-6.6C70.6,14.1,67.6,11.2,64,11.2z M64,20.9
		c-1.7,0-3.1-1.4-3.1-3.1c0-1.7,1.4-3.1,3.1-3.1c1.7,0,3.1,1.4,3.1,3.1C67.1,19.5,65.7,20.9,64,20.9z M64,11.2
		c-3.6,0-6.6,2.9-6.6,6.6c0,3.6,2.9,6.6,6.6,6.6c3.6,0,6.6-2.9,6.6-6.6C70.6,14.1,67.6,11.2,64,11.2z M64,20.9
		c-1.7,0-3.1-1.4-3.1-3.1c0-1.7,1.4-3.1,3.1-3.1c1.7,0,3.1,1.4,3.1,3.1C67.1,19.5,65.7,20.9,64,20.9z M64,0
		C50.4,0,39.2,11.1,39.2,24.8c0,12.8,9.7,23.3,22.2,24.7v47.9H48.5v5.2h12.9v7.7H48.5v5.2h12.9v7.5H48.5v5.2h18.1V49.4
		C79,48.1,88.8,37.6,88.8,24.8C88.8,11.1,77.6,0,64,0z M64,44.4c-10.8,0-19.6-8.8-19.6-19.6C44.4,14,53.2,5.2,64,5.2
		c10.8,0,19.6,8.8,19.6,19.6C83.6,35.6,74.8,44.4,64,44.4z"/>
</g>
</svg>
