<svg id="Layer_1" data-name="Layer 1" xmlns="http://www.w3.org/2000/svg" viewBox="0 0 1080 1080"><defs><style>.cls-1{fill:none;stroke:#000;stroke-miterlimit:10;stroke-width:2px;}</style></defs><path class="cls-1" d="M618.15,329.11A35.14,35.14,0,0,1,606,326.92c-10-3.68-22-11.83-22-29.78h2c0,16.79,11.22,24.44,20.63,27.91a32.62,32.62,0,0,0,30.89-4.37c.61-.46,1.22-.94,1.8-1.42a32.53,32.53,0,0,0,11.95-25.82l.18-42.94c0-.93-.15-2.78-.26-4.4-.1-1.28-.19-2.5-.21-3.24-.64-16.06-2.82-23.4-8.63-29.11a31.69,31.69,0,0,0-23.79-9A33,33,0,0,0,595,216.14c-11.12,13-8.83,28.61-8.8,28.76l-2,.31a40.27,40.27,0,0,1,9.26-30.37,35,35,0,0,1,25-12.11,33.63,33.63,0,0,1,25.28,9.6c7,6.88,8.65,16,9.22,30.45,0,.73.12,1.92.21,3.17.13,1.74.26,3.53.27,4.54l-.18,42.94a34.53,34.53,0,0,1-12.68,27.38c-.61.5-1.23,1-1.88,1.47A34.29,34.29,0,0,1,618.15,329.11Z"/><path class="cls-1" d="M343.94,329.11a35.24,35.24,0,0,1-12.2-2.19c-10-3.68-21.94-11.83-21.94-29.78h2c0,16.79,11.22,24.44,20.64,27.91a32.6,32.6,0,0,0,30.88-4.37c.62-.46,1.22-.94,1.8-1.42a32.53,32.53,0,0,0,11.95-25.82l.18-42.94c0-.93-.15-2.78-.26-4.4-.1-1.28-.19-2.5-.21-3.24-.64-16.06-2.82-23.4-8.63-29.11a31.67,31.67,0,0,0-23.79-9,33,33,0,0,0-23.54,11.42c-11.09,13-8.83,28.61-8.8,28.76l-2,.31a40.27,40.27,0,0,1,9.26-30.37,35,35,0,0,1,25-12.11,33.63,33.63,0,0,1,25.28,9.6c7,6.88,8.65,16,9.22,30.45,0,.73.12,1.92.21,3.17.13,1.74.26,3.53.27,4.54l-.18,42.94a34.53,34.53,0,0,1-12.68,27.38c-.61.5-1.23,1-1.88,1.47A34.29,34.29,0,0,1,343.94,329.11Z"/><path class="cls-1" d="M727.82,832.29V751.34s0,0,0,0l-.14-.32a1.58,1.58,0,0,1-.12-.15l-.13-.33a.9.9,0,0,1-.19-.2l-.14-.33,0,0a1.77,1.77,0,0,1-.32-.5,1.67,1.67,0,0,1-.4-.44l-.08-.2a1.59,1.59,0,0,1-.15-.21l0,0v0a1.42,1.42,0,0,1-.22-.28v84.1c0,.24,2.08,23.91-8.86,35.91-4.19,4.59-9.8,6.92-16.7,6.92H265.09c-.14,0-13.7,1.38-23.95-7.81-7.77-7-11.71-18.09-11.71-33.07V293c0-.18-.76-17.76,10-29.1,6.12-6.42,14.78-9.68,25.75-9.68H691.27c1.62,0,14.48.31,24,9.53,7,6.82,10.58,16.85,10.58,29.82V589.8a2.83,2.83,0,0,1,.57.69c.06.12.11.24.16.36a1.48,1.48,0,0,1,.15.31c.08.1.15.2.23.29a1,1,0,0,1,.09.21l0,0a1.72,1.72,0,0,1,.33.51l.14.11a.78.78,0,0,1,.1.15l.12.09.08.1V293.57c0-13.53-3.77-24-11.19-31.25-10.69-10.4-25-10.11-25.56-10.09H265.2c-11.55,0-20.7,3.47-27.21,10.31-11.37,12-10.59,29.81-10.56,30.52V834.33c0,15.59,4.17,27.22,12.39,34.58s18.42,8.4,23,8.4c1.31,0,2.17-.08,2.42-.1h435c7.48,0,13.6-2.55,18.18-7.58C730,857,727.91,833.2,727.82,832.29Z"/><path class="cls-1" d="M393.86,468.69H316V390.78h77.91Zm-75.91-2h73.91V392.78H318Z"/><path class="cls-1" d="M393.86,632.1H316V554.18h77.91Zm-75.91-2h73.91V556.18H318Z"/><path class="cls-1" d="M393.86,790.4H316V712.48h77.91Zm-75.91-2h73.91V714.48H318Z"/><path class="cls-1" d="M595.92,409.72h-134a10.83,10.83,0,1,1,0-21.66h134a10.83,10.83,0,1,1,0,21.66Zm-134-19.66a8.83,8.83,0,1,0,0,17.66h134a8.83,8.83,0,1,0,0-17.66Z"/><path class="cls-1" d="M539.07,469.89H464.18a10.71,10.71,0,0,1,0-21.41h74.89a10.71,10.71,0,1,1,0,21.41Zm-74.89-19.41a8.71,8.71,0,0,0,0,17.41h74.89a8.71,8.71,0,1,0,0-17.41Z"/><path class="cls-1" d="M533,575.46H465.54a10.7,10.7,0,1,1,0-21.4H533a10.7,10.7,0,0,1,0,21.4Zm-67.41-19.4a8.7,8.7,0,1,0,0,17.4H533a8.7,8.7,0,0,0,0-17.4Z"/><path class="cls-1" d="M591,634.16H464.39a9.56,9.56,0,0,1-9.55-9.55v-.79a9.56,9.56,0,0,1,9.55-9.55H591a9.56,9.56,0,0,1,9.55,9.55v.79A9.56,9.56,0,0,1,591,634.16ZM464.39,616.27a7.56,7.56,0,0,0-7.55,7.55v.79a7.56,7.56,0,0,0,7.55,7.55H591a7.56,7.56,0,0,0,7.55-7.55v-.79a7.56,7.56,0,0,0-7.55-7.55Z"/><path class="cls-1" d="M590.48,790.4H466.9a10,10,0,0,1,0-20H590.48a10,10,0,0,1,0,20Zm-123.58-18a8,8,0,0,0,0,16H590.48a8,8,0,0,0,0-16Z"/><path class="cls-1" d="M590.48,730.82H466.9a10,10,0,1,1,0-20H590.48a10,10,0,0,1,0,20Zm-123.58-18a8,8,0,1,0,0,16H590.48a8,8,0,0,0,0-16Z"/><path class="cls-1" d="M610.36,576.18l-12.1-98.58,87.59,49.29Zm-9.63-94.9L612,572.75,682,527Z"/><path class="cls-1" d="M684.75,526.38l-.55-.8-74.43,48.59L764.28,810.88l.55.84,79.82-52.43Zm-72.21,48.37,71.11-46.43L726,590a2.68,2.68,0,0,1,.43.54l.11.24,1.24,1.81h0a1.36,1.36,0,0,1,.29.43L841.84,758.74,765.4,809Z"/><path class="cls-1" d="M805.08,830.63c-25.17,0-40.6-19.49-40.75-19.68l1.57-1.23c.15.19,15,18.91,39.18,18.91h0a45.3,45.3,0,0,0,44.24-34.29c3-12.05.65-23.75-6.91-34.76l1.65-1.13c7.9,11.5,10.32,23.74,7.2,36.36a47.3,47.3,0,0,1-46.18,35.82Z"/></svg>